<svg xmlns="http://www.w3.org/2000/svg" viewBox="0 0 1600 900" preserveAspectRatio="xMidYMid slice">
  <defs>
    <linearGradient id="bgGrad" x1="0%" y1="0%" x2="100%" y2="100%">
      <stop offset="0%" stop-color="#f5f1ea"/>
      <stop offset="100%" stop-color="#e9e2d2"/>
    </linearGradient>
    <pattern id="dots" x="0" y="0" width="60" height="60" patternUnits="userSpaceOnUse">
      <circle cx="30" cy="30" r="1.4" fill="#1f2937" fill-opacity="0.1"/>
    </pattern>
  </defs>
  <rect width="1600" height="900" fill="url(#bgGrad)"/>
  <rect width="1600" height="900" fill="url(#dots)"/>
  <!-- 高崎・山並みシルエット風 -->
  <path d="M0,680 L180,540 L360,620 L540,480 L740,580 L920,500 L1120,620 L1300,540 L1500,640 L1600,600 L1600,900 L0,900 Z"
        fill="#1f2937" fill-opacity="0.08"/>
  <path d="M0,760 L200,680 L420,730 L640,660 L880,720 L1100,680 L1320,740 L1520,700 L1600,720 L1600,900 L0,900 Z"
        fill="#1f2937" fill-opacity="0.12"/>
  <!-- D-CROSS粒子 -->
  <circle cx="200" cy="200" r="40" fill="#1f6fd4" fill-opacity="0.10"/>
  <circle cx="1400" cy="280" r="50" fill="#c6357a" fill-opacity="0.09"/>
  <circle cx="800" cy="140" r="28" fill="#f5b924" fill-opacity="0.12"/>
  <circle cx="1100" cy="400" r="20" fill="#2d8659" fill-opacity="0.11"/>
  <circle cx="360" cy="360" r="16" fill="#e87722" fill-opacity="0.10"/>
</svg>
